<svg xmlns="http://www.w3.org/2000/svg" viewBox="0 0 12.63 12.63">
  <path id="Path_26" data-name="Path 26" d="M1.276,1.276A4.355,4.355,0,1,1,0,4.355,4.342,4.342,0,0,1,1.276,1.276ZM4.355.983a3.372,3.372,0,1,0,2.385.987A3.359,3.359,0,0,0,4.355.983Z" fill-rule="evenodd"/>
  <path id="Path_27" data-name="Path 27" d="M217.055,217.2l.14-.14a.945.945,0,0,1,1.334,0l3.177,3.177a.945.945,0,0,1,0,1.334l-.14.14a.941.941,0,0,1-.667.275h0a.941.941,0,0,1-.667-.275l-3.177-3.177h0a.946.946,0,0,1,0-1.334Z" transform="translate(-209.353 -209.353)"/>
  <path id="Path_28" data-name="Path 28" d="M195.449,194.754l.743.743a.491.491,0,1,1-.695.695l-.743-.743a.491.491,0,1,1,.695-.695Z" transform="translate(-187.942 -187.942)" fill-rule="evenodd"/>
</svg>
